<svg version="1" xmlns="http://www.w3.org/2000/svg" width="2138.667" height="2138.667" viewBox="0 0 1604.000000 1604.000000"><path d="M926.8.5c-.2.1-4.1.5-8.8.9-7.8.5-16.9 1.5-29.5 3.1-6.8.9-28.4 4.3-31.5 5-1.4.4-3.4.7-4.5.9-1.1.2-4.5.8-7.5 1.5-3 .6-6.4 1.3-7.6 1.5-6.1 1.2-29.9 7.3-43.4 11.1-21.1 6-42.6 13.4-55.2 18.9-2 .9-3.9 1.6-4.3 1.6-1.3 0-29 12.4-42 18.8-34 16.7-66.3 36.6-98.1 60.2-7.3 5.4-14.2 10.7-15.5 11.8-1.3 1.1-8.2 6.8-15.4 12.8-7.1 5.9-13.5 11.2-14.1 11.8-.7.6-6 5.6-12 11.1-20.3 18.9-43.8 43.3-58.4 60.5-2.5 2.9-5 5.8-5.5 6.4-.6.6-3.3 3.8-6 7.1-2.8 3.3-5.4 6.5-6 7.1-4 4.5-11.4 13.4-24.5 29.4-8.4 10.2-16 19.4-16.9 20.5-.9 1.2-9 11.5-17.9 23-8.9 11.6-16.6 21.6-17.2 22.3-3.8 4.4-30.7 42.7-38.7 55-5.2 8.1-10.8 16.6-12.4 18.9-1.6 2.3-2.9 4.3-2.9 4.6 0 .3-2.9 5.1-6.3 10.8-3.5 5.7-7.5 12.4-8.9 14.9-1.4 2.5-3.4 6.1-4.5 8-19.4 34.4-36.4 71.2-54.1 117.5-3.1 8.1-16.3 47.4-20 59.5-7.8 25.4-21.3 76.9-26.7 102-.2.8-2 8.9-4 18s-4 18.5-4.5 21-1.2 5.6-1.5 7c-.3 1.4-1.2 5.9-2 10s-1.6 8.4-1.9 9.5c-.8 3.7-5.4 28-6 31.5-.3 1.9-.8 4.6-1.1 6-.3 1.4-.9 5-1.5 8s-1.2 6.6-1.5 8c-.3 1.4-.8 4.1-1.1 6-.3 1.9-1.4 8.4-2.4 14.5-1.1 6-2.2 12.3-2.4 14-.3 1.6-1.2 7.3-2.1 12.5-.9 5.2-1.8 10.7-2.1 12.2-.2 1.6-.6 4.3-.9 6-.3 1.8-1 5.8-1.5 8.8-.5 3-1.2 7.5-1.5 10-.3 2.5-.8 5.6-1 7-.6 3.2-1.3 7.5-2 12.5-.4 2.2-.8 5.1-1 6.5-.2 1.4-1.8 12.2-3.5 24s-3.3 23.3-3.6 25.5c-.4 2.2-.8 5.1-.9 6.5-.6 4.3-1.5 11.3-2.5 18.5-.5 3.8-1.2 9-1.5 11.5-.7 6.3-1.7 13.2-2.1 15.3-.2 1-.6 4.8-.9 8.5-.3 3.7-.8 7.4-1 8.2-.3.8-1.1 7.6-2 15-.8 7.4-1.7 14.8-1.9 16.5-.7 5.6-1.6 13-2.1 18.5-.3 3-.7 6.6-1 8-.2 1.4-.7 5.5-1 9.2-.3 3.7-.8 7.5-1 8.6-.2 1-.5 3.9-.6 6.3l-.4 4.4 10.5.5 10.5.5.1 4c.3 9 1.5 40.6 1.9 48.5.2 4.7.7 16.1 1.1 25.5.3 9.3.7 19.7.9 23.1l.3 6-5.5 6c-11.4 12.3-14 15.1-21.3 23.4-4.1 4.7-7.7 8.7-8 9-.5.4-11.6 13.3-30.5 35.6-4.3 5-19.3 23.5-25 30.8-1.6 2.2-4.3 5.6-6 7.6-4.9 6-15.5 20.7-23 32-22.9 34.3-29.9 54.2-24.4 70.4 6.7 19.6 27 32.3 61.1 38 13.5 2.3 23.3 3.4 34.5 4 2.9.1 5.5.5 5.9.8.3.4-.6 4.4-2 9-8 26.4-13.6 45.8-13.6 47.2 0 .9.3 1.6.8 1.7 2 .2 4.7.9 14.3 3.9 5.7 1.7 11.2 3.4 12.1 3.6 1.2.4 1.8 0 1.8-1 0-.8.6-3.5 1.4-5.8.8-2.4 3.5-11.5 6.1-20.3 2.6-8.8 6.6-22.5 9-30.5 4-13.3 10-34 11.2-38.3.4-1.5-.1-1.6-3.2-1.1-5.4.8-41.9.9-50.5 0-14-1.4-16.5-1.7-26.4-3.7-18-3.6-31.2-10.1-33.7-16.5-1.9-5.3 5.9-22.1 20.4-43.9 10.4-15.6 15.5-22.5 33.5-45.4 5.1-6.5 24-29.2 36.2-43.5 2.5-3 9.6-11 11.5-13.2.6-.6 3.7-4.1 7-7.8 3.3-3.8 6.9-7.8 8-9 1.1-1.2 5.5-6 9.7-10.7 4.2-4.6 10.4-11.3 13.7-14.8 3.2-3.5 5.8-7.1 5.6-8-.1-.9-.6-9.9-.9-20.1-.7-19.1-1.3-34.3-2.1-51.5-.2-5.5-.7-18-1-27.8l-.7-17.7 3.4-.1c5.7-.1 557.4-1.4 990.1-2.3l83.7-.2-.5 17.6c-.5 20.6-1.8 44.6-3 56-.2 1.9-.6 7.5-1 12.5-.3 4.9-.8 10.3-1 12-.6 4.8-1.4 11.5-2 18.5-.3 3.6-.8 8.1-1 10-.3 1.9-.9 7.5-1.5 12.5-1.3 10.2-1.8 14.7-2.5 19-.3 1.6-.7 5-1 7.5-.3 2.5-1.4 10.6-2.5 18s-2.2 15.3-2.5 17.5c-.3 2.2-.8 5.1-1 6.5-.3 1.4-.7 3.8-.9 5.5-.6 3.4-3.4 21.4-4.2 26-.2 1.6-.9 5.2-1.4 8-1.3 6.6-1.9 10.2-2.6 14.5-.9 6.2-5.4 30-9.5 51-2.3 11.3-4.3 21.6-4.5 23-.6 2.9-3.4 16.6-4 19.5-.3 1.1-1.1 4.9-1.8 8.5-.7 3.6-3.4 15.9-6 27.4-2.6 11.4-4.6 20.9-4.4 21.1.3.3 12.9 3.3 17.1 4.1 1.6.3 4.9 1.1 7.3 1.9l4.4 1.3.9-3.7c1.1-4 5-21.2 5.7-25.1.3-1.4 1.1-5 1.9-8 1.1-4.3 5.2-24 8.1-38.5.2-1.1 1.6-7.9 3-15 1.4-7.2 2.8-14.1 3.1-15.5.3-2.2 3.8-20.8 4.9-26.5 3.4-17.6 11.2-63.2 12.9-75.5.3-2.5 1-7 1.5-10s1.2-7.3 1.4-9.5c.3-2.2 1.1-7.4 1.7-11.5.6-4.1 1.2-9.1 1.5-11 .2-1.9.8-6.7 1.3-10.5 1.2-7.8 1.7-12.4 2.6-20.5.3-3 .8-7.1 1-9 .6-4.5 1.2-9.8 2.1-18.5.9-9.4 1.1-10.8 1.8-20 .4-4.4.9-9.6 1.1-11.5.3-1.9.7-7.8 1-13 .4-5.2.8-12.2 1-15.5.3-3.3.8-15.9 1.1-28 .4-12.1.9-22.2 1.1-22.5.3-.3 14.9-.6 32.4-.6 17.6-.1 32.2-.4 32.5-.7.3-.3.1-2.2-.5-4.3-.5-2.2-1.2-5.5-1.4-7.4-.3-1.9-1.2-7.8-2.1-13-2.6-14.7-2.8-15.7-5.6-31-1.1-5.8-2.2-12.1-2.5-14-.3-1.9-1.2-6.9-2-11s-1.7-9.1-2-11c-.3-1.9-1.2-6.7-2-10.5-.8-3.9-1.9-9.7-2.5-13-1.2-6.9-1.7-9.9-2.5-13.5-.3-1.4-.7-3.6-1-5-6.4-34-15.8-79.3-21-101.8-1.4-5.6-2.7-11.3-2.9-12.5-.7-3.9-7-26.9-10.7-39.3-.5-1.7-2-5.3-3.4-8s-2.5-5.2-2.5-5.6c0-1.1-18.4-32.9-23-39.9-2.2-3.3-4-6.2-4-6.5 0-.3-20.7-31.3-40-59.9-3.1-4.6-31.8-46.1-35.6-51.5-1.4-1.9-9.3-13.3-17.7-25.3-8.4-12-19-27.3-23.7-34-59.6-85.1-92.6-138.6-100.7-162.7-3.8-11.4-1.4-33.8 5.7-55 3.3-9.6 12.9-30.2 15.6-33.1.8-.8 1.4-1.9 1.4-2.3 0-1.6 11.2-15.7 17.4-21.9 13.6-13.6 27.3-20.4 42.6-21.1 4.6-.2 8.1.3 19.5 2.9 12.2 2.8 47 15.9 83 31.2 19.5 8.3 81.5 35.5 94.5 41.5 3.6 1.6 18.4 8.1 33 14.5 14.6 6.3 27.4 11.9 28.5 12.4 4.7 2.1 30.7 12.3 38 14.9 16.3 5.7 24.7 7.2 42.4 7.5 56.7.8 95.4-29.7 102.8-81 .9-6.5 1-33.7.1-39.5-3.7-24.5-13.5-47.9-31.2-74.5-3.3-5-6.4-9.5-6.8-10-.4-.6-3.4-4.4-6.5-8.5s-6-7.7-6.3-8c-.3-.3-1.8-2.1-3.4-4-13.4-16.5-39.9-43.2-60.6-61-1.4-1.2-3.6-3.1-5-4.4-14.9-13.2-46.2-36.6-69.5-52-27.1-18-47.2-29.8-71.5-41.9-18.7-9.4-24.1-11.6-78.1-32.7-4.2-1.7-7.9-3-8.3-3-.5 0-2.2-.6-3.9-1.4-6.4-2.9-46.9-16.5-70.2-23.6-25.7-7.8-70.9-19.3-84.5-21.5-1.9-.3-4.2-.8-5-1-.8-.2-2.8-.7-4.5-1-1.6-.3-4.1-.7-5.5-1-1.4-.2-5.4-.9-9-1.5-3.6-.5-7.6-1.2-9-1.4-1.4-.3-4.3-.7-6.5-1.1-2.2-.3-5.3-.7-7-1-6.1-.9-10.3-1.4-21-2.4-6-.6-13.5-1.3-16.5-1.7-5.7-.6-64.6-1.5-65.2-.9z"/><path d="M296.8 1223.5c-.2.2-2.3.6-4.8.9-2.5.3-7.7 2.1-11.6 4-9 4.3-16.3 11.6-21.1 21.2-2.9 6-3.6 8.6-4 15.8-.9 13.5 2.6 23.8 11.1 33.3 23.2 25.8 65.2 17.5 76.6-15 5.8-16.4 1.6-34.4-11-46.9-6.5-6.4-15.6-11.3-23.1-12.3-6.7-.9-11.8-1.3-12.1-1z"/></svg>