<svg
   enable-background="new 0 0 266.893 266.895"
   viewBox="0 0 16 16.000121"
   height="16.00012"
   width="16"
   y="0px"
   x="0px
   version="1.1"><defs
     id="defs7" /><path
     style="fill:#828282;fill-opacity:1;stroke-width:0.0620836"
     d="M 15.116985,16.00012 C 15.60459,16.00012 16,15.60471 16,15.11698 V 0.88307 C 16,0.39528 15.604652,0 15.116985,0 H 0.8830772 C 0.3952863,0 0,0.39528 0,0.88307 v 14.23391 c 0,0.48767 0.3952242,0.88314 0.8830772,0.88314 z"
     id="Blue_1_" /><path
     style="fill:#ffffff;stroke-width:0.0620836"
     d="M 11.039768,16.00012 V 9.80399 h 2.079739 l 0.311411,-2.41474 h -2.39115 V 5.84759 c 0,-0.69913 0.194136,-1.17555 1.196662,-1.17555 l 1.278674,-5.6e-4 V 2.51171 c -0.221142,-0.0294 -0.980176,-0.0952 -1.863253,-0.0952 -1.843573,0 -3.105733,1.12533 -3.105733,3.1919 V 7.38922 H 6.461041 v 2.41474 h 2.085077 v 6.19613 z"
     id="f" /></svg>
